# xmcd CD database file
#
# Track frame offsets:
#	150
#	16345
#	41106
#	63140
#	85743
#	101385
#	119749
#	135847
#	154043
#	175392
#	192193
#	212094
#	229854
#	247891
#
# Disc length: 3563 seconds
#
# Revision: 4
# Processed by: cddbd v1.5.2PL0 Copyright (c) Steve Scherf et al.
# Submitted via: CDex 1.70beta3
#
DISCID=b10de90e
DTITLE=NARUTO - BEST HIT NARUTO
DYEAR=1900
DGENRE=Anime
TTITLE0=いきものがかり/ブールーバード
TTITLE1=surface/素直な虹
TTITLE2=NICO Touches the Wall/Broken Youth
TTITLE3=HOME MADE 家族/NO RAIN NO RAINBOW
TTITLE4=井上ジョー/CLOSER
TTITLE5=LHALCALI/ong Kiss Good bye
TTITLE6=デブパレード/バッチコイ!!!
TTITLE7=いきものがかり/ホタルのヒカリ
TTITLE8=SUPER BEAVER/深呼吸
TTITLE9=SEAMO/My ANSWER
TTITLE10=PUFFY/誰かが
TTITLE11=FLOW/Sign
TTITLE12=氣志團/おまえだったんだ
TTITLE13=AZU/For You
EXTD=
EXTT0=
EXTT1=
EXTT2=
EXTT3=
EXTT4=
EXTT5=
EXTT6=
EXTT7=
EXTT8=
EXTT9=
EXTT10=
EXTT11=
EXTT12=
EXTT13=
PLAYORDER=
